<?xml version="1.0" encoding="utf-8" standalone="no"?>
<!DOCTYPE svg PUBLIC "-//W3C//DTD SVG 1.1//EN"
  "http://www.w3.org/Graphics/SVG/1.1/DTD/svg11.dtd">
<!-- Created with matplotlib (http://matplotlib.org/) -->
<svg height="396pt" version="1.1" viewBox="0 0 576 396" width="576pt" xmlns="http://www.w3.org/2000/svg" xmlns:xlink="http://www.w3.org/1999/xlink">
 <defs>
  <style type="text/css">
*{stroke-linecap:butt;stroke-linejoin:round;}
  </style>
 </defs>
 <g id="figure_1">
  <g id="patch_1">
   <path d="M 0 396 
L 576 396 
L 576 0 
L 0 0 
z
" style="fill:#ffffff;"/>
  </g>
  <g id="axes_1">
   <g id="patch_2">
    <path d="M 72 346.5 
L 518.4 346.5 
L 518.4 47.52 
L 72 47.52 
z
" style="fill:#eaeaf2;"/>
   </g>
   <g id="matplotlib.axis_1">
    <g id="xtick_1">
     <g id="line2d_1">
      <path clip-path="url(#p77d839045a)" d="M 92.290909 346.5 
L 92.290909 47.52 
" style="fill:none;stroke:#ffffff;stroke-linecap:round;"/>
     </g>
     <g id="line2d_2"/>
     <g id="text_1">
      <!-- −3 -->
      <defs>
       <path d="M 4.9375 29.6875 
L 4.9375 36.8125 
L 53.515625 36.8125 
L 53.515625 29.6875 
z
" id="LiberationSans-2212"/>
       <path d="M 51.21875 19 
Q 51.21875 9.46875 45.15625 4.234375 
Q 39.109375 -0.984375 27.875 -0.984375 
Q 17.4375 -0.984375 11.203125 3.734375 
Q 4.984375 8.453125 3.8125 17.671875 
L 12.890625 18.5 
Q 14.65625 6.296875 27.875 6.296875 
Q 34.515625 6.296875 38.296875 9.5625 
Q 42.09375 12.84375 42.09375 19.28125 
Q 42.09375 24.90625 37.765625 28.046875 
Q 33.453125 31.203125 25.296875 31.203125 
L 20.3125 31.203125 
L 20.3125 38.8125 
L 25.09375 38.8125 
Q 32.328125 38.8125 36.296875 41.96875 
Q 40.28125 45.125 40.28125 50.6875 
Q 40.28125 56.203125 37.03125 59.390625 
Q 33.796875 62.59375 27.390625 62.59375 
Q 21.578125 62.59375 17.984375 59.609375 
Q 14.40625 56.640625 13.8125 51.21875 
L 4.984375 51.90625 
Q 5.953125 60.359375 11.984375 65.09375 
Q 18.015625 69.828125 27.484375 69.828125 
Q 37.84375 69.828125 43.578125 65.015625 
Q 49.3125 60.203125 49.3125 51.609375 
Q 49.3125 45.015625 45.625 40.890625 
Q 41.9375 36.765625 34.90625 35.296875 
L 34.90625 35.109375 
Q 42.625 34.28125 46.921875 29.9375 
Q 51.21875 25.59375 51.21875 19 
z
" id="LiberationSans-33"/>
      </defs>
      <g style="fill:#262626;" transform="translate(86.590128 360.746875)scale(0.1 -0.1)">
       <use xlink:href="#LiberationSans-2212"/>
       <use x="58.398438" xlink:href="#LiberationSans-33"/>
      </g>
     </g>
    </g>
    <g id="xtick_2">
     <g id="line2d_3">
      <path clip-path="url(#p77d839045a)" d="M 159.927273 346.5 
L 159.927273 47.52 
" style="fill:none;stroke:#ffffff;stroke-linecap:round;"/>
     </g>
     <g id="line2d_4"/>
     <g id="text_2">
      <!-- −2 -->
      <defs>
       <path d="M 5.03125 0 
L 5.03125 6.203125 
Q 7.515625 11.921875 11.109375 16.28125 
Q 14.703125 20.65625 18.65625 24.1875 
Q 22.609375 27.734375 26.484375 30.765625 
Q 30.375 33.796875 33.5 36.8125 
Q 36.625 39.84375 38.546875 43.15625 
Q 40.484375 46.484375 40.484375 50.6875 
Q 40.484375 56.34375 37.15625 59.46875 
Q 33.84375 62.59375 27.9375 62.59375 
Q 22.3125 62.59375 18.671875 59.546875 
Q 15.046875 56.5 14.40625 50.984375 
L 5.421875 51.8125 
Q 6.390625 60.0625 12.421875 64.9375 
Q 18.453125 69.828125 27.9375 69.828125 
Q 38.328125 69.828125 43.921875 64.921875 
Q 49.515625 60.015625 49.515625 50.984375 
Q 49.515625 46.96875 47.671875 43.015625 
Q 45.84375 39.0625 42.234375 35.109375 
Q 38.625 31.15625 28.421875 22.859375 
Q 22.796875 18.265625 19.46875 14.578125 
Q 16.15625 10.890625 14.703125 7.46875 
L 50.59375 7.46875 
L 50.59375 0 
z
" id="LiberationSans-32"/>
      </defs>
      <g style="fill:#262626;" transform="translate(154.226491 360.746875)scale(0.1 -0.1)">
       <use xlink:href="#LiberationSans-2212"/>
       <use x="58.398438" xlink:href="#LiberationSans-32"/>
      </g>
     </g>
    </g>
    <g id="xtick_3">
     <g id="line2d_5">
      <path clip-path="url(#p77d839045a)" d="M 227.563636 346.5 
L 227.563636 47.52 
" style="fill:none;stroke:#ffffff;stroke-linecap:round;"/>
     </g>
     <g id="line2d_6"/>
     <g id="text_3">
      <!-- −1 -->
      <defs>
       <path d="M 7.625 0 
L 7.625 7.46875 
L 25.140625 7.46875 
L 25.140625 60.40625 
L 9.625 49.3125 
L 9.625 57.625 
L 25.875 68.796875 
L 33.984375 68.796875 
L 33.984375 7.46875 
L 50.734375 7.46875 
L 50.734375 0 
z
" id="LiberationSans-31"/>
      </defs>
      <g style="fill:#262626;" transform="translate(221.862855 360.746875)scale(0.1 -0.1)">
       <use xlink:href="#LiberationSans-2212"/>
       <use x="58.398438" xlink:href="#LiberationSans-31"/>
      </g>
     </g>
    </g>
    <g id="xtick_4">
     <g id="line2d_7">
      <path clip-path="url(#p77d839045a)" d="M 295.2 346.5 
L 295.2 47.52 
" style="fill:none;stroke:#ffffff;stroke-linecap:round;"/>
     </g>
     <g id="line2d_8"/>
     <g id="text_4">
      <!-- 0 -->
      <defs>
       <path d="M 51.703125 34.421875 
Q 51.703125 17.1875 45.625 8.09375 
Q 39.546875 -0.984375 27.6875 -0.984375 
Q 15.828125 -0.984375 9.859375 8.046875 
Q 3.90625 17.09375 3.90625 34.421875 
Q 3.90625 52.15625 9.6875 60.984375 
Q 15.484375 69.828125 27.984375 69.828125 
Q 40.140625 69.828125 45.921875 60.890625 
Q 51.703125 51.953125 51.703125 34.421875 
z
M 42.78125 34.421875 
Q 42.78125 49.3125 39.328125 56 
Q 35.890625 62.703125 27.984375 62.703125 
Q 19.875 62.703125 16.328125 56.109375 
Q 12.796875 49.515625 12.796875 34.421875 
Q 12.796875 19.78125 16.375 12.984375 
Q 19.96875 6.203125 27.78125 6.203125 
Q 35.546875 6.203125 39.15625 13.125 
Q 42.78125 20.0625 42.78125 34.421875 
z
" id="LiberationSans-30"/>
      </defs>
      <g style="fill:#262626;" transform="translate(292.419531 360.746875)scale(0.1 -0.1)">
       <use xlink:href="#LiberationSans-30"/>
      </g>
     </g>
    </g>
    <g id="xtick_5">
     <g id="line2d_9">
      <path clip-path="url(#p77d839045a)" d="M 362.836364 346.5 
L 362.836364 47.52 
" style="fill:none;stroke:#ffffff;stroke-linecap:round;"/>
     </g>
     <g id="line2d_10"/>
     <g id="text_5">
      <!-- 1 -->
      <g style="fill:#262626;" transform="translate(360.055895 360.746875)scale(0.1 -0.1)">
       <use xlink:href="#LiberationSans-31"/>
      </g>
     </g>
    </g>
    <g id="xtick_6">
     <g id="line2d_11">
      <path clip-path="url(#p77d839045a)" d="M 430.472727 346.5 
L 430.472727 47.52 
" style="fill:none;stroke:#ffffff;stroke-linecap:round;"/>
     </g>
     <g id="line2d_12"/>
     <g id="text_6">
      <!-- 2 -->
      <g style="fill:#262626;" transform="translate(427.692259 360.746875)scale(0.1 -0.1)">
       <use xlink:href="#LiberationSans-32"/>
      </g>
     </g>
    </g>
    <g id="xtick_7">
     <g id="line2d_13">
      <path clip-path="url(#p77d839045a)" d="M 498.109091 346.5 
L 498.109091 47.52 
" style="fill:none;stroke:#ffffff;stroke-linecap:round;"/>
     </g>
     <g id="line2d_14"/>
     <g id="text_7">
      <!-- 3 -->
      <g style="fill:#262626;" transform="translate(495.328622 360.746875)scale(0.1 -0.1)">
       <use xlink:href="#LiberationSans-33"/>
      </g>
     </g>
    </g>
   </g>
   <g id="matplotlib.axis_2">
    <g id="ytick_1">
     <g id="line2d_15">
      <path clip-path="url(#p77d839045a)" d="M 72 332.91 
L 518.4 332.91 
" style="fill:none;stroke:#ffffff;stroke-linecap:round;"/>
     </g>
     <g id="line2d_16"/>
    </g>
    <g id="ytick_2">
     <g id="line2d_17">
      <path clip-path="url(#p77d839045a)" d="M 72 298.933639 
L 518.4 298.933639 
" style="fill:none;stroke:#ffffff;stroke-linecap:round;"/>
     </g>
     <g id="line2d_18"/>
    </g>
    <g id="ytick_3">
     <g id="line2d_19">
      <path clip-path="url(#p77d839045a)" d="M 72 264.957278 
L 518.4 264.957278 
" style="fill:none;stroke:#ffffff;stroke-linecap:round;"/>
     </g>
     <g id="line2d_20"/>
    </g>
    <g id="ytick_4">
     <g id="line2d_21">
      <path clip-path="url(#p77d839045a)" d="M 72 230.980917 
L 518.4 230.980917 
" style="fill:none;stroke:#ffffff;stroke-linecap:round;"/>
     </g>
     <g id="line2d_22"/>
    </g>
    <g id="ytick_5">
     <g id="line2d_23">
      <path clip-path="url(#p77d839045a)" d="M 72 197.004556 
L 518.4 197.004556 
" style="fill:none;stroke:#ffffff;stroke-linecap:round;"/>
     </g>
     <g id="line2d_24"/>
    </g>
    <g id="ytick_6">
     <g id="line2d_25">
      <path clip-path="url(#p77d839045a)" d="M 72 163.028195 
L 518.4 163.028195 
" style="fill:none;stroke:#ffffff;stroke-linecap:round;"/>
     </g>
     <g id="line2d_26"/>
    </g>
    <g id="ytick_7">
     <g id="line2d_27">
      <path clip-path="url(#p77d839045a)" d="M 72 129.051834 
L 518.4 129.051834 
" style="fill:none;stroke:#ffffff;stroke-linecap:round;"/>
     </g>
     <g id="line2d_28"/>
    </g>
    <g id="ytick_8">
     <g id="line2d_29">
      <path clip-path="url(#p77d839045a)" d="M 72 95.075474 
L 518.4 95.075474 
" style="fill:none;stroke:#ffffff;stroke-linecap:round;"/>
     </g>
     <g id="line2d_30"/>
    </g>
    <g id="ytick_9">
     <g id="line2d_31">
      <path clip-path="url(#p77d839045a)" d="M 72 61.099113 
L 518.4 61.099113 
" style="fill:none;stroke:#ffffff;stroke-linecap:round;"/>
     </g>
     <g id="line2d_32"/>
    </g>
   </g>
   <g id="line2d_33">
    <path clip-path="url(#p77d839045a)" d="M 92.290909 332.89409 
L 106.102539 332.746439 
L 112.602129 332.47472 
L 117.070598 332.093366 
L 120.726618 331.57926 
L 123.976413 330.896739 
L 126.819984 330.062149 
L 129.25733 329.120076 
L 131.694676 327.919545 
L 133.725799 326.683917 
L 135.756921 325.199317 
L 137.788043 323.430747 
L 139.819165 321.341988 
L 141.850287 318.896491 
L 143.881409 316.058491 
L 145.912531 312.794324 
L 147.943653 309.073926 
L 149.974775 304.87249 
L 152.005897 300.172216 
L 154.037019 294.964099 
L 156.474365 288.047001 
L 158.911712 280.427444 
L 161.755283 270.724433 
L 165.005078 258.738182 
L 169.473546 241.247528 
L 175.973137 215.812865 
L 178.816708 205.580671 
L 181.254054 197.628768 
L 183.285176 191.737409 
L 184.910074 187.582918 
L 186.534971 183.976355 
L 188.159869 180.956839 
L 189.378542 179.095924 
L 190.597215 177.591416 
L 191.815889 176.449036 
L 193.034562 175.671023 
L 194.253235 175.256042 
L 195.065684 175.17877 
L 195.878133 175.258345 
L 197.096806 175.66486 
L 198.315479 176.403816 
L 199.534152 177.458397 
L 200.752826 178.808486 
L 202.377723 181.027744 
L 204.002621 183.667961 
L 206.033743 187.452049 
L 208.471089 192.500939 
L 216.595577 209.790312 
L 218.626699 213.387572 
L 220.251597 215.856293 
L 221.876495 217.897822 
L 223.095168 219.119142 
L 224.313841 220.056276 
L 225.532514 220.696339 
L 226.751188 221.030164 
L 227.969861 221.052399 
L 229.188534 220.761541 
L 230.407207 220.159938 
L 231.62588 219.25373 
L 232.844554 218.052748 
L 234.063227 216.570362 
L 235.688124 214.185458 
L 237.313022 211.378457 
L 239.344144 207.363237 
L 241.781491 201.970683 
L 245.43751 193.215474 
L 249.905979 182.548245 
L 252.343325 177.23784 
L 254.374447 173.279658 
L 256.405569 169.846051 
L 258.030467 167.523749 
L 259.655364 165.604436 
L 261.280262 164.099728 
L 262.498935 163.24382 
L 263.717609 162.61738 
L 264.936282 162.212883 
L 266.154955 162.019536 
L 267.373628 162.023507 
L 268.592301 162.208203 
L 270.217199 162.702392 
L 271.842097 163.433138 
L 273.873219 164.594383 
L 277.529238 167.030783 
L 280.779034 169.119036 
L 282.810156 170.193824 
L 284.841278 170.994549 
L 286.466175 171.398862 
L 288.091073 171.572988 
L 289.715971 171.50949 
L 291.340868 171.211737 
L 292.965766 170.69382 
L 294.996888 169.774847 
L 297.434234 168.36656 
L 305.152498 163.579265 
L 306.777396 162.911617 
L 308.402293 162.493259 
L 309.620966 162.374268 
L 310.83964 162.443916 
L 312.058313 162.719079 
L 313.276986 163.21384 
L 314.495659 163.939213 
L 315.714333 164.9029 
L 316.933006 166.109112 
L 318.557903 168.095153 
L 320.182801 170.504166 
L 321.807699 173.315661 
L 323.838821 177.346387 
L 325.869943 181.869472 
L 328.713514 188.816227 
L 337.244226 210.245575 
L 339.275348 214.56442 
L 340.900246 217.572474 
L 342.525143 220.102219 
L 343.743817 221.644345 
L 344.96249 222.852851 
L 346.181163 223.704317 
L 346.993612 224.063332 
L 347.806061 224.249127 
L 348.618509 224.256998 
L 349.430958 224.082888 
L 350.243407 223.723412 
L 351.055856 223.175864 
L 352.274529 221.997704 
L 353.493202 220.388209 
L 354.711876 218.347145 
L 355.930549 215.87787 
L 357.149222 212.987295 
L 358.77412 208.496327 
L 360.399017 203.309324 
L 362.430139 195.915157 
L 364.461261 187.610658 
L 366.898608 176.625492 
L 369.742179 162.729595 
L 374.210647 139.609614 
L 379.08534 114.598025 
L 381.928911 101.080621 
L 384.366257 90.573088 
L 386.397379 82.784566 
L 388.022277 77.288512 
L 389.647174 72.514564 
L 391.272072 68.518071 
L 392.490745 66.059462 
L 393.709419 64.081281 
L 394.928092 62.597169 
L 395.740541 61.887641 
L 396.552989 61.404934 
L 397.365438 61.150877 
L 398.177887 61.1267 
L 398.990336 61.333036 
L 399.802785 61.769923 
L 400.615233 62.436803 
L 401.427682 63.332535 
L 402.646355 65.101305 
L 403.865029 67.372771 
L 405.083702 70.135919 
L 406.302375 73.377031 
L 407.927273 78.413489 
L 409.55217 84.22509 
L 411.583292 92.499253 
L 413.614414 101.786437 
L 416.051761 114.086393 
L 418.895332 129.723424 
L 422.551351 151.241452 
L 434.331859 221.850947 
L 437.581654 239.424325 
L 440.425225 253.56987 
L 442.862572 264.667053 
L 445.299918 274.759888 
L 447.737265 283.827121 
L 449.768387 290.603291 
L 451.799509 296.687081 
L 453.830631 302.104212 
L 455.861753 306.888241 
L 457.892875 311.078764 
L 459.923997 314.719683 
L 461.955119 317.857575 
L 463.986241 320.540221 
L 466.017363 322.81532 
L 468.048485 324.729397 
L 470.079607 326.326938 
L 472.110729 327.649718 
L 474.141851 328.73633 
L 476.579197 329.777724 
L 479.016544 330.583257 
L 481.860115 331.286431 
L 485.10991 331.85222 
L 489.172154 332.306672 
L 494.046847 332.613935 
L 498.109091 332.751545 
L 498.109091 332.751545 
" style="fill:none;stroke:#4c72b0;stroke-linecap:round;stroke-width:3;"/>
   </g>
   <g id="line2d_34">
    <path clip-path="url(#p77d839045a)" d="M 92.290909 329.2273 
L 96.353153 328.170682 
L 100.415397 326.873441 
L 104.071417 325.470759 
L 107.727437 323.818358 
L 110.977232 322.119711 
L 114.227027 320.187889 
L 117.476822 318.00882 
L 120.726618 315.571261 
L 123.976413 312.8676 
L 127.226208 309.894663 
L 130.882228 306.231017 
L 134.538247 302.241279 
L 138.600491 297.453568 
L 143.06896 291.811632 
L 148.349877 284.756093 
L 165.411302 261.586381 
L 169.067322 257.136292 
L 172.317117 253.506531 
L 175.160688 250.634524 
L 178.004259 248.088079 
L 180.441605 246.192036 
L 182.878952 244.58194 
L 185.316298 243.275137 
L 187.34742 242.428189 
L 189.378542 241.808271 
L 191.409664 241.42014 
L 193.440786 241.266787 
L 195.471908 241.349394 
L 197.50303 241.667323 
L 199.534152 242.218125 
L 201.565274 242.997567 
L 203.596396 243.99969 
L 206.033743 245.485349 
L 208.471089 247.264543 
L 210.908436 249.318252 
L 213.752007 252.032244 
L 216.595577 255.052304 
L 219.845373 258.825502 
L 223.501392 263.402409 
L 228.376085 269.891842 
L 246.656183 294.677139 
L 251.124652 300.13073 
L 255.186896 304.717206 
L 258.842916 308.509646 
L 262.498935 311.967497 
L 265.748731 314.755197 
L 268.998526 317.275288 
L 272.248321 319.534082 
L 275.498116 321.541774 
L 278.747912 323.311637 
L 282.403931 325.037901 
L 286.059951 326.50737 
L 289.715971 327.745827 
L 293.778215 328.882664 
L 298.246683 329.882621 
L 303.121376 330.723896 
L 308.402293 331.399161 
L 314.495659 331.944658 
L 321.807699 332.363056 
L 331.15086 332.657906 
L 344.556265 332.834565 
L 370.148403 332.904481 
L 498.109091 332.91 
L 498.109091 332.91 
" style="fill:none;stroke:#ff0000;stroke-dasharray:3,4.95;stroke-dashoffset:0;stroke-width:3;"/>
   </g>
   <g id="line2d_35">
    <path clip-path="url(#p77d839045a)" d="M 92.290909 332.897853 
L 118.289271 332.756815 
L 130.069779 332.489635 
L 138.600491 332.082825 
L 145.100082 331.566226 
L 150.787224 330.899451 
L 155.661916 330.115384 
L 160.130385 329.179645 
L 164.192629 328.111828 
L 168.254873 326.801626 
L 171.910893 325.385747 
L 175.566912 323.718727 
L 178.816708 322.005962 
L 182.066503 320.059074 
L 185.316298 317.864145 
L 188.566093 315.410135 
L 191.815889 312.689687 
L 195.065684 309.69993 
L 198.721704 306.017761 
L 202.377723 302.010466 
L 206.439967 297.205126 
L 210.908436 291.54711 
L 216.189353 284.478615 
L 232.844554 261.843197 
L 236.500573 257.374107 
L 239.750369 253.7231 
L 242.593939 250.829323 
L 245.43751 248.258377 
L 247.874857 246.339378 
L 250.312203 244.70475 
L 252.74955 243.372084 
L 254.780672 242.50276 
L 256.811794 241.859897 
L 258.842916 241.448424 
L 260.874038 241.271509 
L 262.90516 241.330519 
L 264.936282 241.624996 
L 266.967404 242.152672 
L 268.998526 242.90949 
L 271.029648 243.889661 
L 273.06077 245.085735 
L 275.498116 246.793219 
L 277.935463 248.78023 
L 280.779034 251.423556 
L 283.622604 254.38141 
L 286.8724 258.09465 
L 290.528419 262.618977 
L 294.996888 268.513057 
L 302.308927 278.591908 
L 310.027191 289.13925 
L 314.901884 295.44364 
L 318.964128 300.368878 
L 323.026372 304.936451 
L 326.682391 308.710625 
L 330.338411 312.149625 
L 333.588206 314.920499 
L 336.838002 317.42403 
L 340.087797 319.666795 
L 343.337592 321.659206 
L 346.587387 323.414702 
L 350.243407 325.126041 
L 353.899427 326.581992 
L 357.555446 327.808382 
L 361.61769 328.933498 
L 366.086159 329.922527 
L 370.960852 330.754047 
L 376.241769 331.420996 
L 382.335135 331.959345 
L 389.647174 332.371876 
L 398.990336 332.662266 
L 412.395741 332.835996 
L 438.394103 332.90484 
L 498.109091 332.909998 
L 498.109091 332.909998 
" style="fill:none;stroke:#ff0000;stroke-dasharray:3,4.95;stroke-dashoffset:0;stroke-width:3;"/>
   </g>
   <g id="line2d_36">
    <path clip-path="url(#p77d839045a)" d="M 92.290909 332.909984 
L 168.661097 332.800788 
L 182.066503 332.556992 
L 191.00344 332.184926 
L 197.909255 331.687927 
L 203.596396 331.073078 
L 208.877314 330.276177 
L 213.345782 329.385498 
L 217.408026 328.366315 
L 221.47027 327.112474 
L 225.12629 325.754059 
L 228.78231 324.150783 
L 232.032105 322.499664 
L 235.2819 320.618651 
L 238.531695 318.49317 
L 241.781491 316.111312 
L 245.031286 313.464625 
L 248.281081 310.548926 
L 251.937101 306.948522 
L 255.59312 303.018987 
L 259.655364 298.292084 
L 264.123833 292.706166 
L 269.40475 285.696781 
L 278.341687 273.350966 
L 284.841278 264.564349 
L 288.903522 259.417311 
L 292.559541 255.142684 
L 295.809337 251.705835 
L 298.652907 249.029316 
L 301.090254 247.011013 
L 303.5276 245.269919 
L 305.964947 243.82468 
L 307.996069 242.857717 
L 310.027191 242.114501 
L 312.058313 241.60072 
L 314.089435 241.320325 
L 316.120557 241.275476 
L 318.151679 241.46652 
L 320.182801 241.891984 
L 322.213923 242.548592 
L 324.245045 243.431309 
L 326.276167 244.533406 
L 328.713514 246.133655 
L 331.15086 248.020476 
L 333.588206 250.173816 
L 336.431777 252.992748 
L 339.681572 256.570502 
L 343.337592 260.973793 
L 347.399836 266.225219 
L 353.086978 273.968938 
L 364.867486 290.108055 
L 369.742179 296.354375 
L 373.804423 301.218736 
L 377.460442 305.285183 
L 381.116462 309.030033 
L 384.772482 312.438838 
L 388.022277 315.182808 
L 391.272072 317.659896 
L 394.521867 319.877101 
L 397.771663 321.845174 
L 401.021458 323.57781 
L 404.677477 325.265426 
L 408.333497 326.699916 
L 411.989517 327.907166 
L 416.051761 329.01371 
L 420.520229 329.985442 
L 425.394922 330.801537 
L 430.675839 331.455355 
L 436.769206 331.982429 
L 444.081245 332.385722 
L 453.424406 332.669097 
L 467.236036 332.840939 
L 494.453071 332.905845 
L 498.109091 332.907251 
L 498.109091 332.907251 
" style="fill:none;stroke:#ff0000;stroke-dasharray:3,4.95;stroke-dashoffset:0;stroke-width:3;"/>
   </g>
   <g id="line2d_37">
    <path clip-path="url(#p77d839045a)" d="M 92.290909 332.91 
L 238.93792 332.801438 
L 252.343325 332.558899 
L 261.280262 332.188582 
L 268.186077 331.693748 
L 273.873219 331.081405 
L 279.154136 330.287555 
L 283.622604 329.400086 
L 287.684848 328.384376 
L 291.747093 327.134567 
L 295.403112 325.78027 
L 299.059132 324.181572 
L 302.308927 322.534888 
L 305.558722 320.658622 
L 308.808518 318.538158 
L 312.058313 316.161523 
L 315.308108 313.520189 
L 318.557903 310.60988 
L 322.213923 307.015447 
L 325.869943 303.091617 
L 329.932187 298.370505 
L 334.400655 292.789963 
L 339.275348 286.336055 
L 346.993612 275.692049 
L 354.305651 265.71888 
L 358.77412 259.995186 
L 362.430139 255.671108 
L 365.679934 252.180437 
L 368.523505 249.449744 
L 370.960852 247.380227 
L 373.398198 245.583999 
L 375.835545 244.080243 
L 377.866667 243.062362 
L 379.897789 242.266668 
L 381.928911 241.699242 
L 383.960033 241.364442 
L 385.991155 241.264849 
L 388.022277 241.401231 
L 390.053399 241.772536 
L 392.084521 242.375903 
L 394.115643 243.206701 
L 396.146765 244.258588 
L 398.584111 245.801351 
L 401.021458 247.63425 
L 403.458804 249.737746 
L 406.302375 252.504275 
L 409.145946 255.570342 
L 412.395741 259.387574 
L 416.457985 264.532466 
L 421.738903 271.637792 
L 436.769206 292.149285 
L 441.237674 297.770374 
L 445.299918 302.535349 
L 448.955938 306.502512 
L 452.611957 310.142395 
L 456.267977 313.443761 
L 459.517772 316.092456 
L 462.767568 318.476273 
L 466.017363 320.603636 
L 469.267158 322.486432 
L 472.923178 324.330445 
L 476.579197 325.906944 
L 480.235217 327.241282 
L 484.297461 328.471567 
L 488.359705 329.470475 
L 492.828174 330.342417 
L 497.702867 331.069947 
L 498.109091 331.12153 
L 498.109091 331.12153 
" style="fill:none;stroke:#ff0000;stroke-dasharray:3,4.95;stroke-dashoffset:0;stroke-width:3;"/>
   </g>
   <g id="line2d_38">
    <path clip-path="url(#p77d839045a)" d="M 92.290909 332.91 
L 263.311384 332.801195 
L 276.71679 332.558185 
L 285.653726 332.187213 
L 292.559541 331.691568 
L 298.246683 331.078286 
L 303.5276 330.283293 
L 307.996069 329.394622 
L 312.058313 328.37761 
L 316.120557 327.12629 
L 319.776577 325.77045 
L 323.432596 324.170036 
L 326.682391 322.52169 
L 329.932187 320.643644 
L 333.181982 318.521299 
L 336.431777 316.142706 
L 339.681572 313.499365 
L 342.931368 310.587035 
L 346.587387 306.990362 
L 350.243407 303.064392 
L 354.305651 298.341107 
L 358.77412 292.758547 
L 364.055037 285.751977 
L 372.991974 273.407105 
L 379.491564 264.61751 
L 383.553808 259.466906 
L 387.209828 255.187956 
L 390.459623 251.746415 
L 393.303194 249.065185 
L 395.740541 247.042435 
L 398.177887 245.296561 
L 400.615233 243.846254 
L 402.646355 242.874885 
L 404.677477 242.127133 
L 406.7086 241.608719 
L 408.739722 241.323628 
L 410.770844 241.274059 
L 412.801966 241.460394 
L 414.833088 241.881196 
L 416.86421 242.533224 
L 418.895332 243.411479 
L 420.926454 244.509265 
L 423.3638 246.104584 
L 425.801147 247.986786 
L 428.238493 250.135862 
L 431.082064 252.950319 
L 434.331859 256.523674 
L 437.987879 260.922989 
L 442.050123 266.171246 
L 447.737265 273.91272 
L 459.517772 290.054424 
L 464.392465 296.304044 
L 468.454709 301.171831 
L 472.110729 305.24173 
L 475.766749 308.990252 
L 479.422768 312.402834 
L 482.672563 315.150165 
L 485.922359 317.630555 
L 489.172154 319.85095 
L 492.421949 321.822057 
L 495.671744 323.557542 
L 498.109091 324.714 
L 498.109091 324.714 
" style="fill:none;stroke:#ff0000;stroke-dasharray:3,4.95;stroke-dashoffset:0;stroke-width:3;"/>
   </g>
   <g id="line2d_39">
    <path clip-path="url(#p77d839045a)" d="M 193.745455 332.91 
L 261.381818 332.91 
L 315.490909 332.91 
L 385.832727 332.91 
L 410.181818 332.91 
" style="fill:none;"/>
    <defs>
     <path d="M 0 7.5 
C 1.989023 7.5 3.896849 6.709753 5.303301 5.303301 
C 6.709753 3.896849 7.5 1.989023 7.5 0 
C 7.5 -1.989023 6.709753 -3.896849 5.303301 -5.303301 
C 3.896849 -6.709753 1.989023 -7.5 0 -7.5 
C -1.989023 -7.5 -3.896849 -6.709753 -5.303301 -5.303301 
C -6.709753 -3.896849 -7.5 -1.989023 -7.5 0 
C -7.5 1.989023 -6.709753 3.896849 -5.303301 5.303301 
C -3.896849 6.709753 -1.989023 7.5 0 7.5 
z
" id="m409b5aa17a"/>
    </defs>
    <g clip-path="url(#p77d839045a)">
     <use style="fill:#55a868;" x="193.745455" xlink:href="#m409b5aa17a" y="332.91"/>
     <use style="fill:#55a868;" x="261.381818" xlink:href="#m409b5aa17a" y="332.91"/>
     <use style="fill:#55a868;" x="315.490909" xlink:href="#m409b5aa17a" y="332.91"/>
     <use style="fill:#55a868;" x="385.832727" xlink:href="#m409b5aa17a" y="332.91"/>
     <use style="fill:#55a868;" x="410.181818" xlink:href="#m409b5aa17a" y="332.91"/>
    </g>
   </g>
   <g id="patch_3">
    <path d="M 72 346.5 
L 72 47.52 
" style="fill:none;"/>
   </g>
   <g id="patch_4">
    <path d="M 518.4 346.5 
L 518.4 47.52 
" style="fill:none;"/>
   </g>
   <g id="patch_5">
    <path d="M 72 346.5 
L 518.4 346.5 
" style="fill:none;"/>
   </g>
   <g id="patch_6">
    <path d="M 72 47.52 
L 518.4 47.52 
" style="fill:none;"/>
   </g>
  </g>
 </g>
 <defs>
  <clipPath id="p77d839045a">
   <rect height="298.98" width="446.4" x="72" y="47.52"/>
  </clipPath>
 </defs>
</svg>
