<?xml version="1.0" encoding="utf-8" standalone="no"?>
<!DOCTYPE svg PUBLIC "-//W3C//DTD SVG 1.1//EN"
  "http://www.w3.org/Graphics/SVG/1.1/DTD/svg11.dtd">
<!-- Created with matplotlib (http://matplotlib.org/) -->
<svg height="396pt" version="1.1" viewBox="0 0 576 396" width="576pt" xmlns="http://www.w3.org/2000/svg" xmlns:xlink="http://www.w3.org/1999/xlink">
 <defs>
  <style type="text/css">
*{stroke-linecap:butt;stroke-linejoin:round;}
  </style>
 </defs>
 <g id="figure_1">
  <g id="patch_1">
   <path d="M 0 396 
L 576 396 
L 576 0 
L 0 0 
z
" style="fill:#ffffff;"/>
  </g>
  <g id="axes_1">
   <g id="patch_2">
    <path d="M 72 346.5 
L 518.4 346.5 
L 518.4 47.52 
L 72 47.52 
z
" style="fill:#eaeaf2;"/>
   </g>
   <g id="matplotlib.axis_1">
    <g id="xtick_1">
     <g id="line2d_1">
      <path clip-path="url(#p791f847c08)" d="M 135.771429 346.5 
L 135.771429 47.52 
" style="fill:none;stroke:#ffffff;stroke-linecap:round;"/>
     </g>
     <g id="line2d_2"/>
     <g id="text_1">
      <!-- −2 -->
      <defs>
       <path d="M 4.9375 29.6875 
L 4.9375 36.8125 
L 53.515625 36.8125 
L 53.515625 29.6875 
z
" id="LiberationSans-2212"/>
       <path d="M 5.03125 0 
L 5.03125 6.203125 
Q 7.515625 11.921875 11.109375 16.28125 
Q 14.703125 20.65625 18.65625 24.1875 
Q 22.609375 27.734375 26.484375 30.765625 
Q 30.375 33.796875 33.5 36.8125 
Q 36.625 39.84375 38.546875 43.15625 
Q 40.484375 46.484375 40.484375 50.6875 
Q 40.484375 56.34375 37.15625 59.46875 
Q 33.84375 62.59375 27.9375 62.59375 
Q 22.3125 62.59375 18.671875 59.546875 
Q 15.046875 56.5 14.40625 50.984375 
L 5.421875 51.8125 
Q 6.390625 60.0625 12.421875 64.9375 
Q 18.453125 69.828125 27.9375 69.828125 
Q 38.328125 69.828125 43.921875 64.921875 
Q 49.515625 60.015625 49.515625 50.984375 
Q 49.515625 46.96875 47.671875 43.015625 
Q 45.84375 39.0625 42.234375 35.109375 
Q 38.625 31.15625 28.421875 22.859375 
Q 22.796875 18.265625 19.46875 14.578125 
Q 16.15625 10.890625 14.703125 7.46875 
L 50.59375 7.46875 
L 50.59375 0 
z
" id="LiberationSans-32"/>
      </defs>
      <g style="fill:#262626;" transform="translate(130.070647 360.746875)scale(0.1 -0.1)">
       <use xlink:href="#LiberationSans-2212"/>
       <use x="58.398438" xlink:href="#LiberationSans-32"/>
      </g>
     </g>
    </g>
    <g id="xtick_2">
     <g id="line2d_3">
      <path clip-path="url(#p791f847c08)" d="M 215.485714 346.5 
L 215.485714 47.52 
" style="fill:none;stroke:#ffffff;stroke-linecap:round;"/>
     </g>
     <g id="line2d_4"/>
     <g id="text_2">
      <!-- −1 -->
      <defs>
       <path d="M 7.625 0 
L 7.625 7.46875 
L 25.140625 7.46875 
L 25.140625 60.40625 
L 9.625 49.3125 
L 9.625 57.625 
L 25.875 68.796875 
L 33.984375 68.796875 
L 33.984375 7.46875 
L 50.734375 7.46875 
L 50.734375 0 
z
" id="LiberationSans-31"/>
      </defs>
      <g style="fill:#262626;" transform="translate(209.784933 360.746875)scale(0.1 -0.1)">
       <use xlink:href="#LiberationSans-2212"/>
       <use x="58.398438" xlink:href="#LiberationSans-31"/>
      </g>
     </g>
    </g>
    <g id="xtick_3">
     <g id="line2d_5">
      <path clip-path="url(#p791f847c08)" d="M 295.2 346.5 
L 295.2 47.52 
" style="fill:none;stroke:#ffffff;stroke-linecap:round;"/>
     </g>
     <g id="line2d_6"/>
     <g id="text_3">
      <!-- 0 -->
      <defs>
       <path d="M 51.703125 34.421875 
Q 51.703125 17.1875 45.625 8.09375 
Q 39.546875 -0.984375 27.6875 -0.984375 
Q 15.828125 -0.984375 9.859375 8.046875 
Q 3.90625 17.09375 3.90625 34.421875 
Q 3.90625 52.15625 9.6875 60.984375 
Q 15.484375 69.828125 27.984375 69.828125 
Q 40.140625 69.828125 45.921875 60.890625 
Q 51.703125 51.953125 51.703125 34.421875 
z
M 42.78125 34.421875 
Q 42.78125 49.3125 39.328125 56 
Q 35.890625 62.703125 27.984375 62.703125 
Q 19.875 62.703125 16.328125 56.109375 
Q 12.796875 49.515625 12.796875 34.421875 
Q 12.796875 19.78125 16.375 12.984375 
Q 19.96875 6.203125 27.78125 6.203125 
Q 35.546875 6.203125 39.15625 13.125 
Q 42.78125 20.0625 42.78125 34.421875 
z
" id="LiberationSans-30"/>
      </defs>
      <g style="fill:#262626;" transform="translate(292.419531 360.746875)scale(0.1 -0.1)">
       <use xlink:href="#LiberationSans-30"/>
      </g>
     </g>
    </g>
    <g id="xtick_4">
     <g id="line2d_7">
      <path clip-path="url(#p791f847c08)" d="M 374.914286 346.5 
L 374.914286 47.52 
" style="fill:none;stroke:#ffffff;stroke-linecap:round;"/>
     </g>
     <g id="line2d_8"/>
     <g id="text_4">
      <!-- 1 -->
      <g style="fill:#262626;" transform="translate(372.133817 360.746875)scale(0.1 -0.1)">
       <use xlink:href="#LiberationSans-31"/>
      </g>
     </g>
    </g>
    <g id="xtick_5">
     <g id="line2d_9">
      <path clip-path="url(#p791f847c08)" d="M 454.628571 346.5 
L 454.628571 47.52 
" style="fill:none;stroke:#ffffff;stroke-linecap:round;"/>
     </g>
     <g id="line2d_10"/>
     <g id="text_5">
      <!-- 2 -->
      <g style="fill:#262626;" transform="translate(451.848103 360.746875)scale(0.1 -0.1)">
       <use xlink:href="#LiberationSans-32"/>
      </g>
     </g>
    </g>
   </g>
   <g id="matplotlib.axis_2">
    <g id="ytick_1">
     <g id="line2d_11">
      <path clip-path="url(#p791f847c08)" d="M 72 346.5 
L 518.4 346.5 
" style="fill:none;stroke:#ffffff;stroke-linecap:round;"/>
     </g>
     <g id="line2d_12"/>
     <g id="text_6">
      <!-- 0.0 -->
      <defs>
       <path d="M 9.125 0 
L 9.125 10.6875 
L 18.65625 10.6875 
L 18.65625 0 
z
" id="LiberationSans-2e"/>
      </defs>
      <g style="fill:#262626;" transform="translate(51.1 350.123438)scale(0.1 -0.1)">
       <use xlink:href="#LiberationSans-30"/>
       <use x="55.615234" xlink:href="#LiberationSans-2e"/>
       <use x="83.398438" xlink:href="#LiberationSans-30"/>
      </g>
     </g>
    </g>
    <g id="ytick_2">
     <g id="line2d_13">
      <path clip-path="url(#p791f847c08)" d="M 72 289.551429 
L 518.4 289.551429 
" style="fill:none;stroke:#ffffff;stroke-linecap:round;"/>
     </g>
     <g id="line2d_14"/>
     <g id="text_7">
      <!-- 0.2 -->
      <g style="fill:#262626;" transform="translate(51.1 293.174866)scale(0.1 -0.1)">
       <use xlink:href="#LiberationSans-30"/>
       <use x="55.615234" xlink:href="#LiberationSans-2e"/>
       <use x="83.398438" xlink:href="#LiberationSans-32"/>
      </g>
     </g>
    </g>
    <g id="ytick_3">
     <g id="line2d_15">
      <path clip-path="url(#p791f847c08)" d="M 72 232.602857 
L 518.4 232.602857 
" style="fill:none;stroke:#ffffff;stroke-linecap:round;"/>
     </g>
     <g id="line2d_16"/>
     <g id="text_8">
      <!-- 0.4 -->
      <defs>
       <path d="M 43.015625 15.578125 
L 43.015625 0 
L 34.71875 0 
L 34.71875 15.578125 
L 2.296875 15.578125 
L 2.296875 22.40625 
L 33.796875 68.796875 
L 43.015625 68.796875 
L 43.015625 22.515625 
L 52.6875 22.515625 
L 52.6875 15.578125 
z
M 34.71875 58.890625 
Q 34.625 58.59375 33.34375 56.296875 
Q 32.078125 54 31.453125 53.078125 
L 13.8125 27.09375 
L 11.1875 23.484375 
L 10.40625 22.515625 
L 34.71875 22.515625 
z
" id="LiberationSans-34"/>
      </defs>
      <g style="fill:#262626;" transform="translate(51.1 236.226295)scale(0.1 -0.1)">
       <use xlink:href="#LiberationSans-30"/>
       <use x="55.615234" xlink:href="#LiberationSans-2e"/>
       <use x="83.398438" xlink:href="#LiberationSans-34"/>
      </g>
     </g>
    </g>
    <g id="ytick_4">
     <g id="line2d_17">
      <path clip-path="url(#p791f847c08)" d="M 72 175.654286 
L 518.4 175.654286 
" style="fill:none;stroke:#ffffff;stroke-linecap:round;"/>
     </g>
     <g id="line2d_18"/>
     <g id="text_9">
      <!-- 0.6 -->
      <defs>
       <path d="M 51.21875 22.515625 
Q 51.21875 11.625 45.3125 5.3125 
Q 39.40625 -0.984375 29 -0.984375 
Q 17.390625 -0.984375 11.234375 7.65625 
Q 5.078125 16.3125 5.078125 32.8125 
Q 5.078125 50.6875 11.46875 60.25 
Q 17.875 69.828125 29.6875 69.828125 
Q 45.265625 69.828125 49.3125 55.8125 
L 40.921875 54.296875 
Q 38.328125 62.703125 29.59375 62.703125 
Q 22.078125 62.703125 17.9375 55.6875 
Q 13.8125 48.6875 13.8125 35.40625 
Q 16.21875 39.84375 20.5625 42.15625 
Q 24.90625 44.484375 30.515625 44.484375 
Q 40.046875 44.484375 45.625 38.515625 
Q 51.21875 32.5625 51.21875 22.515625 
z
M 42.28125 22.125 
Q 42.28125 29.59375 38.625 33.640625 
Q 34.96875 37.703125 28.421875 37.703125 
Q 22.265625 37.703125 18.484375 34.109375 
Q 14.703125 30.515625 14.703125 24.21875 
Q 14.703125 16.265625 18.625 11.1875 
Q 22.5625 6.109375 28.71875 6.109375 
Q 35.0625 6.109375 38.671875 10.375 
Q 42.28125 14.65625 42.28125 22.125 
z
" id="LiberationSans-36"/>
      </defs>
      <g style="fill:#262626;" transform="translate(51.1 179.277723)scale(0.1 -0.1)">
       <use xlink:href="#LiberationSans-30"/>
       <use x="55.615234" xlink:href="#LiberationSans-2e"/>
       <use x="83.398438" xlink:href="#LiberationSans-36"/>
      </g>
     </g>
    </g>
    <g id="ytick_5">
     <g id="line2d_19">
      <path clip-path="url(#p791f847c08)" d="M 72 118.705714 
L 518.4 118.705714 
" style="fill:none;stroke:#ffffff;stroke-linecap:round;"/>
     </g>
     <g id="line2d_20"/>
     <g id="text_10">
      <!-- 0.8 -->
      <defs>
       <path d="M 51.265625 19.1875 
Q 51.265625 9.671875 45.203125 4.34375 
Q 39.15625 -0.984375 27.828125 -0.984375 
Q 16.796875 -0.984375 10.5625 4.234375 
Q 4.34375 9.46875 4.34375 19.09375 
Q 4.34375 25.828125 8.203125 30.421875 
Q 12.0625 35.015625 18.0625 35.984375 
L 18.0625 36.1875 
Q 12.453125 37.5 9.203125 41.890625 
Q 5.953125 46.296875 5.953125 52.203125 
Q 5.953125 60.0625 11.828125 64.9375 
Q 17.71875 69.828125 27.640625 69.828125 
Q 37.796875 69.828125 43.671875 65.03125 
Q 49.5625 60.25 49.5625 52.09375 
Q 49.5625 46.1875 46.28125 41.796875 
Q 43.015625 37.40625 37.359375 36.28125 
L 37.359375 36.078125 
Q 43.953125 35.015625 47.609375 30.5 
Q 51.265625 25.984375 51.265625 19.1875 
z
M 40.4375 51.609375 
Q 40.4375 63.28125 27.640625 63.28125 
Q 21.4375 63.28125 18.1875 60.34375 
Q 14.9375 57.421875 14.9375 51.609375 
Q 14.9375 45.703125 18.28125 42.59375 
Q 21.625 39.5 27.734375 39.5 
Q 33.9375 39.5 37.1875 42.359375 
Q 40.4375 45.21875 40.4375 51.609375 
z
M 42.140625 20.015625 
Q 42.140625 26.421875 38.328125 29.65625 
Q 34.515625 32.90625 27.640625 32.90625 
Q 20.953125 32.90625 17.1875 29.40625 
Q 13.421875 25.921875 13.421875 19.828125 
Q 13.421875 5.609375 27.9375 5.609375 
Q 35.109375 5.609375 38.625 9.046875 
Q 42.140625 12.5 42.140625 20.015625 
z
" id="LiberationSans-38"/>
      </defs>
      <g style="fill:#262626;" transform="translate(51.1 122.329152)scale(0.1 -0.1)">
       <use xlink:href="#LiberationSans-30"/>
       <use x="55.615234" xlink:href="#LiberationSans-2e"/>
       <use x="83.398438" xlink:href="#LiberationSans-38"/>
      </g>
     </g>
    </g>
    <g id="ytick_6">
     <g id="line2d_21">
      <path clip-path="url(#p791f847c08)" d="M 72 61.757143 
L 518.4 61.757143 
" style="fill:none;stroke:#ffffff;stroke-linecap:round;"/>
     </g>
     <g id="line2d_22"/>
     <g id="text_11">
      <!-- 1.0 -->
      <g style="fill:#262626;" transform="translate(51.1 65.38058)scale(0.1 -0.1)">
       <use xlink:href="#LiberationSans-31"/>
       <use x="55.615234" xlink:href="#LiberationSans-2e"/>
       <use x="83.398438" xlink:href="#LiberationSans-30"/>
      </g>
     </g>
    </g>
   </g>
   <g id="line2d_23">
    <path clip-path="url(#p791f847c08)" d="M 56.057143 345.238063 
L 67.068726 344.608214 
L 76.644015 343.851286 
L 85.261776 342.958201 
L 93.400772 341.889566 
L 100.582239 340.731974 
L 107.284942 339.442569 
L 113.987645 337.925761 
L 120.211583 336.29164 
L 126.435521 334.419947 
L 132.180695 332.465152 
L 137.925869 330.278512 
L 143.671042 327.848327 
L 149.416216 325.165179 
L 155.16139 322.22248 
L 160.906564 319.017024 
L 166.651737 315.549528 
L 172.396911 311.825123 
L 178.620849 307.512162 
L 184.844788 302.929169 
L 191.54749 297.723065 
L 199.207722 291.485648 
L 208.783012 283.380558 
L 233.2 262.553571 
L 239.902703 257.196336 
L 245.647876 252.861534 
L 250.914286 249.148611 
L 255.701931 246.026894 
L 260.489575 243.178449 
L 264.798456 240.872146 
L 269.107336 238.829419 
L 272.937452 237.248832 
L 276.767568 235.900669 
L 280.597683 234.794053 
L 284.427799 233.936531 
L 288.257915 233.333985 
L 291.609266 233.019223 
L 294.960618 232.904547 
L 298.311969 232.990565 
L 301.66332 233.27682 
L 305.014672 233.761798 
L 308.844788 234.556061 
L 312.674903 235.601047 
L 316.505019 236.889619 
L 320.335135 238.413038 
L 324.165251 240.161062 
L 328.474131 242.381535 
L 332.783012 244.853073 
L 337.570656 247.869051 
L 342.358301 251.140145 
L 347.62471 254.995222 
L 353.848649 259.839824 
L 361.030116 265.726105 
L 371.08417 274.292658 
L 390.713514 291.087316 
L 398.85251 297.723065 
L 406.033977 303.290721 
L 412.73668 308.193849 
L 418.960618 312.463337 
L 424.705792 316.145481 
L 430.450965 319.569536 
L 436.196139 322.731136 
L 441.941313 325.630255 
L 447.686486 328.270702 
L 453.43166 330.659574 
L 459.176834 332.806707 
L 464.922008 334.72413 
L 471.145946 336.55802 
L 477.369884 338.157328 
L 484.072587 339.640103 
L 490.77529 340.899079 
L 497.956757 342.027976 
L 505.616988 343.013845 
L 514.234749 343.894592 
L 523.810039 344.640486 
L 534.342857 345.238063 
L 534.342857 345.238063 
" style="fill:none;stroke:#4c72b0;stroke-linecap:round;stroke-width:3;"/>
   </g>
   <g id="line2d_24">
    <path clip-path="url(#p791f847c08)" d="M 56.057143 346.5 
L 215.485714 346.5 
L 215.964479 204.128571 
L 374.435521 204.128571 
L 374.914286 346.5 
L 534.342857 346.5 
L 534.342857 346.5 
" style="fill:none;stroke:#55a868;stroke-linecap:round;stroke-width:3;"/>
   </g>
   <g id="line2d_25">
    <path clip-path="url(#p791f847c08)" d="M 56.057143 346.5 
L 215.485714 346.5 
L 219.794595 324.036721 
L 224.103475 302.821402 
L 227.933591 285.011011 
L 231.763707 268.186663 
L 235.593822 252.348356 
L 239.423938 237.496093 
L 242.77529 225.309225 
L 246.126641 213.877295 
L 249.477992 203.200305 
L 252.829344 193.278253 
L 256.180695 184.11114 
L 259.053282 176.854484 
L 261.925869 170.152477 
L 264.798456 164.005119 
L 267.671042 158.41241 
L 270.543629 153.374349 
L 272.937452 149.599656 
L 275.331274 146.210135 
L 277.725097 143.205787 
L 280.118919 140.586612 
L 282.512741 138.352609 
L 284.427799 136.842732 
L 286.342857 135.579365 
L 288.257915 134.562509 
L 290.172973 133.792163 
L 292.088031 133.268328 
L 294.003089 132.991004 
L 295.918147 132.96019 
L 297.833205 133.175887 
L 299.748263 133.638094 
L 301.66332 134.346812 
L 303.578378 135.302041 
L 305.493436 136.50378 
L 307.408494 137.95203 
L 309.323552 139.64679 
L 311.717375 142.111896 
L 314.111197 144.962175 
L 316.505019 148.197627 
L 318.898842 151.818251 
L 321.292664 155.824048 
L 323.686486 160.215018 
L 326.559073 165.992611 
L 329.43166 172.324852 
L 332.304247 179.211742 
L 335.176834 186.653281 
L 338.049421 194.649468 
L 341.400772 204.679369 
L 344.752124 215.464207 
L 348.103475 227.003985 
L 351.454826 239.298701 
L 355.284942 254.274221 
L 359.115058 270.235782 
L 362.945174 287.183386 
L 366.77529 305.117032 
L 370.605405 324.036721 
L 374.914286 346.5 
L 534.342857 346.5 
L 534.342857 346.5 
" style="fill:none;stroke:#c44e52;stroke-linecap:round;stroke-width:3;"/>
   </g>
   <g id="line2d_26">
    <path clip-path="url(#p791f847c08)" d="M 56.057143 339.411744 
L 69.941313 338.063112 
L 82.389189 336.637204 
L 93.879537 335.107972 
L 104.89112 333.420424 
L 114.945174 331.662199 
L 124.520463 329.768416 
L 133.616988 327.745902 
L 142.234749 325.60478 
L 150.373745 323.358616 
L 158.033977 321.024464 
L 165.694208 318.454878 
L 172.875676 315.810984 
L 179.578378 313.118933 
L 186.281081 310.190734 
L 192.505019 307.242165 
L 198.728958 304.054151 
L 204.952896 300.607248 
L 210.698069 297.177554 
L 216.443243 293.491549 
L 222.188417 289.530079 
L 227.454826 285.639188 
L 232.721236 281.482559 
L 237.987645 277.042044 
L 243.254054 272.298254 
L 248.520463 267.230475 
L 253.308108 262.323666 
L 258.095753 257.113124 
L 262.883398 251.580047 
L 267.671042 245.704472 
L 272.458687 239.465196 
L 277.246332 232.839707 
L 282.033977 225.804098 
L 286.821622 218.332983 
L 291.130502 211.214375 
L 294.960618 204.555472 
L 295.439382 204.555472 
L 300.227027 212.829706 
L 305.014672 220.621619 
L 309.802317 227.959325 
L 314.589961 234.869301 
L 319.377606 241.376481 
L 324.165251 247.504344 
L 328.952896 253.275001 
L 333.740541 258.709275 
L 338.528185 263.826775 
L 343.31583 268.645965 
L 348.582239 273.623249 
L 353.848649 278.282331 
L 359.115058 282.643554 
L 364.381467 286.725959 
L 370.126641 290.882417 
L 375.871815 294.74985 
L 381.616988 298.348357 
L 387.362162 301.696638 
L 393.5861 305.06172 
L 399.810039 308.174057 
L 406.512741 311.264893 
L 413.215444 314.106465 
L 420.396911 316.897205 
L 427.578378 319.44752 
L 435.23861 321.926157 
L 442.898842 324.177693 
L 451.037838 326.344355 
L 459.655598 328.409693 
L 468.752124 330.360621 
L 478.327413 332.187375 
L 488.381467 333.883368 
L 499.39305 335.511187 
L 510.883398 336.986293 
L 523.331274 338.361731 
L 534.342857 339.411744 
L 534.342857 339.411744 
" style="fill:none;stroke:#8172b2;stroke-linecap:round;stroke-width:3;"/>
   </g>
   <g id="line2d_27">
    <path clip-path="url(#p791f847c08)" d="M 56.057143 346.5 
L 215.485714 346.5 
L 294.960618 62.612227 
L 295.439382 62.612227 
L 374.914286 346.5 
L 534.342857 346.5 
L 534.342857 346.5 
" style="fill:none;stroke:#ccb974;stroke-linecap:round;stroke-width:3;"/>
   </g>
   <g id="line2d_28">
    <path clip-path="url(#p791f847c08)" d="M 56.057143 346.5 
L 215.485714 346.5 
L 227.454826 294.241805 
L 233.678764 268.032644 
L 238.945174 246.761082 
L 243.732819 228.34876 
L 248.041699 212.67164 
L 251.871815 199.542544 
L 255.701931 187.250161 
L 259.053282 177.235838 
L 262.404633 167.959443 
L 265.27722 160.626324 
L 268.149807 153.888615 
L 271.022394 147.767899 
L 273.416216 143.152821 
L 275.810039 138.99013 
L 278.203861 135.289084 
L 280.597683 132.057919 
L 282.512741 129.816167 
L 284.427799 127.882951 
L 286.342857 126.261024 
L 288.257915 124.952696 
L 290.172973 123.959828 
L 292.088031 123.283836 
L 293.524324 122.985388 
L 294.960618 122.865971 
L 296.396911 122.925682 
L 297.833205 123.164473 
L 299.269498 123.582152 
L 300.705792 124.178386 
L 302.620849 125.250268 
L 304.535907 126.637189 
L 306.450965 128.337172 
L 308.366023 130.347797 
L 310.281081 132.666202 
L 312.196139 135.289084 
L 314.589961 138.99013 
L 316.983784 143.152821 
L 319.377606 147.767899 
L 321.771429 152.825095 
L 324.644015 159.461418 
L 327.516602 166.696882 
L 330.389189 174.50831 
L 333.740541 184.316114 
L 337.091892 194.830981 
L 340.922008 207.654822 
L 344.752124 221.269189 
L 349.061004 237.433601 
L 353.848649 256.310451 
L 359.115058 277.994763 
L 365.817761 306.627472 
L 374.914286 346.5 
L 534.342857 346.5 
L 534.342857 346.5 
" style="fill:none;stroke:#64b5cd;stroke-linecap:round;stroke-width:3;"/>
   </g>
   <g id="patch_3">
    <path d="M 72 346.5 
L 72 47.52 
" style="fill:none;"/>
   </g>
   <g id="patch_4">
    <path d="M 518.4 346.5 
L 518.4 47.52 
" style="fill:none;"/>
   </g>
   <g id="patch_5">
    <path d="M 72 346.5 
L 518.4 346.5 
" style="fill:none;"/>
   </g>
   <g id="patch_6">
    <path d="M 72 47.52 
L 518.4 47.52 
" style="fill:none;"/>
   </g>
   <g id="legend_1">
    <g id="line2d_29">
     <path d="M 419.690625 60.266875 
L 439.690625 60.266875 
" style="fill:none;stroke:#4c72b0;stroke-linecap:round;stroke-width:3;"/>
    </g>
    <g id="line2d_30"/>
    <g id="text_12">
     <!-- gaussian -->
     <defs>
      <path d="M 26.765625 -20.75 
Q 18.109375 -20.75 12.984375 -17.359375 
Q 7.859375 -13.96875 6.390625 -7.71875 
L 15.234375 -6.453125 
Q 16.109375 -10.109375 19.109375 -12.078125 
Q 22.125 -14.0625 27 -14.0625 
Q 40.140625 -14.0625 40.140625 1.3125 
L 40.140625 9.8125 
L 40.046875 9.8125 
Q 37.546875 4.734375 33.203125 2.171875 
Q 28.859375 -0.390625 23.046875 -0.390625 
Q 13.328125 -0.390625 8.765625 6.046875 
Q 4.203125 12.5 4.203125 26.3125 
Q 4.203125 40.328125 9.109375 46.984375 
Q 14.015625 53.65625 24.03125 53.65625 
Q 29.640625 53.65625 33.765625 51.09375 
Q 37.890625 48.53125 40.140625 43.796875 
L 40.234375 43.796875 
Q 40.234375 45.265625 40.421875 48.875 
Q 40.625 52.484375 40.828125 52.828125 
L 49.171875 52.828125 
Q 48.875 50.203125 48.875 41.890625 
L 48.875 1.515625 
Q 48.875 -20.75 26.765625 -20.75 
z
M 40.140625 26.421875 
Q 40.140625 32.859375 38.375 37.515625 
Q 36.625 42.1875 33.421875 44.65625 
Q 30.21875 47.125 26.171875 47.125 
Q 19.4375 47.125 16.359375 42.234375 
Q 13.28125 37.359375 13.28125 26.421875 
Q 13.28125 15.578125 16.15625 10.84375 
Q 19.046875 6.109375 26.03125 6.109375 
Q 30.171875 6.109375 33.390625 8.546875 
Q 36.625 10.984375 38.375 15.546875 
Q 40.140625 20.125 40.140625 26.421875 
z
" id="LiberationSans-67"/>
      <path d="M 20.21875 -0.984375 
Q 12.25 -0.984375 8.25 3.21875 
Q 4.25 7.421875 4.25 14.75 
Q 4.25 22.953125 9.640625 27.34375 
Q 15.046875 31.734375 27.046875 32.03125 
L 38.921875 32.234375 
L 38.921875 35.109375 
Q 38.921875 41.546875 36.1875 44.328125 
Q 33.453125 47.125 27.59375 47.125 
Q 21.6875 47.125 19 45.109375 
Q 16.3125 43.109375 15.765625 38.71875 
L 6.59375 39.546875 
Q 8.84375 53.8125 27.78125 53.8125 
Q 37.75 53.8125 42.765625 49.234375 
Q 47.796875 44.671875 47.796875 36.03125 
L 47.796875 13.28125 
Q 47.796875 9.375 48.828125 7.390625 
Q 49.859375 5.421875 52.734375 5.421875 
Q 54 5.421875 55.609375 5.765625 
L 55.609375 0.296875 
Q 52.296875 -0.484375 48.828125 -0.484375 
Q 43.953125 -0.484375 41.71875 2.078125 
Q 39.5 4.640625 39.203125 10.109375 
L 38.921875 10.109375 
Q 35.546875 4.046875 31.078125 1.53125 
Q 26.609375 -0.984375 20.21875 -0.984375 
z
M 22.21875 5.609375 
Q 27.046875 5.609375 30.8125 7.8125 
Q 34.578125 10.015625 36.75 13.84375 
Q 38.921875 17.671875 38.921875 21.734375 
L 38.921875 26.078125 
L 29.296875 25.875 
Q 23.09375 25.78125 19.890625 24.609375 
Q 16.703125 23.4375 14.984375 21 
Q 13.28125 18.5625 13.28125 14.59375 
Q 13.28125 10.296875 15.59375 7.953125 
Q 17.921875 5.609375 22.21875 5.609375 
z
" id="LiberationSans-61"/>
      <path d="M 15.328125 52.828125 
L 15.328125 19.34375 
Q 15.328125 14.109375 16.359375 11.21875 
Q 17.390625 8.34375 19.625 7.078125 
Q 21.875 5.8125 26.21875 5.8125 
Q 32.5625 5.8125 36.21875 10.15625 
Q 39.890625 14.5 39.890625 22.21875 
L 39.890625 52.828125 
L 48.6875 52.828125 
L 48.6875 11.28125 
Q 48.6875 2.046875 48.96875 0 
L 40.671875 0 
Q 40.625 0.25 40.578125 1.3125 
Q 40.53125 2.390625 40.453125 3.78125 
Q 40.375 5.171875 40.28125 9.03125 
L 40.140625 9.03125 
Q 37.109375 3.5625 33.125 1.28125 
Q 29.15625 -0.984375 23.25 -0.984375 
Q 14.546875 -0.984375 10.515625 3.34375 
Q 6.5 7.671875 6.5 17.625 
L 6.5 52.828125 
z
" id="LiberationSans-75"/>
      <path d="M 46.390625 14.59375 
Q 46.390625 7.125 40.75 3.0625 
Q 35.109375 -0.984375 24.953125 -0.984375 
Q 15.09375 -0.984375 9.734375 2.265625 
Q 4.390625 5.515625 2.78125 12.40625 
L 10.546875 13.921875 
Q 11.671875 9.671875 15.1875 7.6875 
Q 18.703125 5.71875 24.953125 5.71875 
Q 31.640625 5.71875 34.734375 7.765625 
Q 37.84375 9.8125 37.84375 13.921875 
Q 37.84375 17.046875 35.6875 19 
Q 33.546875 20.953125 28.765625 22.21875 
L 22.46875 23.875 
Q 14.890625 25.828125 11.6875 27.703125 
Q 8.5 29.59375 6.6875 32.28125 
Q 4.890625 34.96875 4.890625 38.875 
Q 4.890625 46.09375 10.03125 49.875 
Q 15.1875 53.65625 25.046875 53.65625 
Q 33.796875 53.65625 38.9375 50.578125 
Q 44.09375 47.515625 45.453125 40.71875 
L 37.546875 39.75 
Q 36.8125 43.265625 33.609375 45.140625 
Q 30.421875 47.015625 25.046875 47.015625 
Q 19.09375 47.015625 16.25 45.203125 
Q 13.421875 43.40625 13.421875 39.75 
Q 13.421875 37.5 14.59375 36.03125 
Q 15.765625 34.578125 18.0625 33.546875 
Q 20.359375 32.515625 27.734375 30.71875 
Q 34.71875 28.953125 37.796875 27.46875 
Q 40.875 25.984375 42.65625 24.171875 
Q 44.4375 22.359375 45.40625 19.984375 
Q 46.390625 17.625 46.390625 14.59375 
z
" id="LiberationSans-73"/>
      <path d="M 6.6875 64.0625 
L 6.6875 72.46875 
L 15.484375 72.46875 
L 15.484375 64.0625 
z
M 6.6875 0 
L 6.6875 52.828125 
L 15.484375 52.828125 
L 15.484375 0 
z
" id="LiberationSans-69"/>
      <path d="M 40.28125 0 
L 40.28125 33.5 
Q 40.28125 38.71875 39.25 41.59375 
Q 38.234375 44.484375 35.984375 45.75 
Q 33.734375 47.015625 29.390625 47.015625 
Q 23.046875 47.015625 19.375 42.671875 
Q 15.71875 38.328125 15.71875 30.609375 
L 15.71875 0 
L 6.9375 0 
L 6.9375 41.546875 
Q 6.9375 50.78125 6.640625 52.828125 
L 14.9375 52.828125 
Q 14.984375 52.59375 15.03125 51.515625 
Q 15.09375 50.4375 15.15625 49.046875 
Q 15.234375 47.65625 15.328125 43.796875 
L 15.484375 43.796875 
Q 18.5 49.265625 22.484375 51.53125 
Q 26.46875 53.8125 32.375 53.8125 
Q 41.0625 53.8125 45.09375 49.484375 
Q 49.125 45.171875 49.125 35.203125 
L 49.125 0 
z
" id="LiberationSans-6e"/>
     </defs>
     <g style="fill:#262626;" transform="translate(447.690625 63.766875)scale(0.1 -0.1)">
      <use xlink:href="#LiberationSans-67"/>
      <use x="55.615234" xlink:href="#LiberationSans-61"/>
      <use x="111.230469" xlink:href="#LiberationSans-75"/>
      <use x="166.845703" xlink:href="#LiberationSans-73"/>
      <use x="216.845703" xlink:href="#LiberationSans-73"/>
      <use x="266.845703" xlink:href="#LiberationSans-69"/>
      <use x="289.0625" xlink:href="#LiberationSans-61"/>
      <use x="344.677734" xlink:href="#LiberationSans-6e"/>
     </g>
    </g>
    <g id="line2d_31">
     <path d="M 419.690625 74.58875 
L 439.690625 74.58875 
" style="fill:none;stroke:#55a868;stroke-linecap:round;stroke-width:3;"/>
    </g>
    <g id="line2d_32"/>
    <g id="text_13">
     <!-- tophat -->
     <defs>
      <path d="M 27.046875 0.390625 
Q 22.703125 -0.78125 18.171875 -0.78125 
Q 7.625 -0.78125 7.625 11.1875 
L 7.625 46.4375 
L 1.515625 46.4375 
L 1.515625 52.828125 
L 7.953125 52.828125 
L 10.546875 64.65625 
L 16.40625 64.65625 
L 16.40625 52.828125 
L 26.171875 52.828125 
L 26.171875 46.4375 
L 16.40625 46.4375 
L 16.40625 13.09375 
Q 16.40625 9.28125 17.640625 7.734375 
Q 18.890625 6.203125 21.96875 6.203125 
Q 23.734375 6.203125 27.046875 6.890625 
z
" id="LiberationSans-74"/>
      <path d="M 51.421875 26.46875 
Q 51.421875 12.59375 45.3125 5.796875 
Q 39.203125 -0.984375 27.59375 -0.984375 
Q 16.015625 -0.984375 10.109375 6.078125 
Q 4.203125 13.140625 4.203125 26.46875 
Q 4.203125 53.8125 27.875 53.8125 
Q 39.984375 53.8125 45.703125 47.140625 
Q 51.421875 40.484375 51.421875 26.46875 
z
M 42.1875 26.46875 
Q 42.1875 37.40625 38.9375 42.359375 
Q 35.6875 47.3125 28.03125 47.3125 
Q 20.3125 47.3125 16.859375 42.25 
Q 13.421875 37.203125 13.421875 26.46875 
Q 13.421875 16.015625 16.8125 10.765625 
Q 20.21875 5.515625 27.484375 5.515625 
Q 35.40625 5.515625 38.796875 10.59375 
Q 42.1875 15.671875 42.1875 26.46875 
z
" id="LiberationSans-6f"/>
      <path d="M 51.421875 26.65625 
Q 51.421875 -0.984375 31.984375 -0.984375 
Q 19.78125 -0.984375 15.578125 8.203125 
L 15.328125 8.203125 
Q 15.53125 7.8125 15.53125 -0.09375 
L 15.53125 -20.75 
L 6.734375 -20.75 
L 6.734375 42.046875 
Q 6.734375 50.203125 6.453125 52.828125 
L 14.9375 52.828125 
Q 14.984375 52.640625 15.078125 51.4375 
Q 15.1875 50.25 15.3125 47.75 
Q 15.4375 45.265625 15.4375 44.34375 
L 15.625 44.34375 
Q 17.96875 49.21875 21.828125 51.484375 
Q 25.6875 53.765625 31.984375 53.765625 
Q 41.75 53.765625 46.578125 47.21875 
Q 51.421875 40.671875 51.421875 26.65625 
z
M 42.1875 26.46875 
Q 42.1875 37.5 39.203125 42.234375 
Q 36.234375 46.96875 29.734375 46.96875 
Q 24.515625 46.96875 21.5625 44.765625 
Q 18.609375 42.578125 17.0625 37.90625 
Q 15.53125 33.25 15.53125 25.78125 
Q 15.53125 15.375 18.84375 10.4375 
Q 22.171875 5.515625 29.640625 5.515625 
Q 36.1875 5.515625 39.1875 10.328125 
Q 42.1875 15.140625 42.1875 26.46875 
z
" id="LiberationSans-70"/>
      <path d="M 15.484375 43.796875 
Q 18.3125 48.96875 22.28125 51.390625 
Q 26.265625 53.8125 32.375 53.8125 
Q 40.96875 53.8125 45.046875 49.53125 
Q 49.125 45.265625 49.125 35.203125 
L 49.125 0 
L 40.28125 0 
L 40.28125 33.5 
Q 40.28125 39.0625 39.25 41.765625 
Q 38.234375 44.484375 35.890625 45.75 
Q 33.546875 47.015625 29.390625 47.015625 
Q 23.1875 47.015625 19.453125 42.71875 
Q 15.71875 38.421875 15.71875 31.15625 
L 15.71875 0 
L 6.9375 0 
L 6.9375 72.46875 
L 15.71875 72.46875 
L 15.71875 53.609375 
Q 15.71875 50.640625 15.546875 47.453125 
Q 15.375 44.28125 15.328125 43.796875 
z
" id="LiberationSans-68"/>
     </defs>
     <g style="fill:#262626;" transform="translate(447.690625 78.08875)scale(0.1 -0.1)">
      <use xlink:href="#LiberationSans-74"/>
      <use x="27.783203" xlink:href="#LiberationSans-6f"/>
      <use x="83.398438" xlink:href="#LiberationSans-70"/>
      <use x="139.013672" xlink:href="#LiberationSans-68"/>
      <use x="194.628906" xlink:href="#LiberationSans-61"/>
      <use x="250.244141" xlink:href="#LiberationSans-74"/>
     </g>
    </g>
    <g id="line2d_33">
     <path d="M 419.690625 88.910625 
L 439.690625 88.910625 
" style="fill:none;stroke:#c44e52;stroke-linecap:round;stroke-width:3;"/>
    </g>
    <g id="line2d_34"/>
    <g id="text_14">
     <!-- epanechnikov -->
     <defs>
      <path d="M 13.484375 24.5625 
Q 13.484375 15.484375 17.234375 10.546875 
Q 21 5.609375 28.21875 5.609375 
Q 33.9375 5.609375 37.375 7.90625 
Q 40.828125 10.203125 42.046875 13.71875 
L 49.75 11.53125 
Q 45.015625 -0.984375 28.21875 -0.984375 
Q 16.5 -0.984375 10.375 6 
Q 4.25 12.984375 4.25 26.765625 
Q 4.25 39.84375 10.375 46.828125 
Q 16.5 53.8125 27.875 53.8125 
Q 51.171875 53.8125 51.171875 25.734375 
L 51.171875 24.5625 
z
M 42.09375 31.296875 
Q 41.359375 39.65625 37.84375 43.484375 
Q 34.328125 47.3125 27.734375 47.3125 
Q 21.34375 47.3125 17.609375 43.03125 
Q 13.875 38.765625 13.578125 31.296875 
z
" id="LiberationSans-65"/>
      <path d="M 13.421875 26.65625 
Q 13.421875 16.109375 16.734375 11.03125 
Q 20.0625 5.953125 26.765625 5.953125 
Q 31.453125 5.953125 34.59375 8.484375 
Q 37.75 11.03125 38.484375 16.3125 
L 47.359375 15.71875 
Q 46.34375 8.109375 40.875 3.5625 
Q 35.40625 -0.984375 27 -0.984375 
Q 15.921875 -0.984375 10.078125 6.015625 
Q 4.25 13.03125 4.25 26.46875 
Q 4.25 39.796875 10.109375 46.796875 
Q 15.96875 53.8125 26.90625 53.8125 
Q 35.015625 53.8125 40.359375 49.609375 
Q 45.703125 45.40625 47.078125 38.03125 
L 38.03125 37.359375 
Q 37.359375 41.75 34.5625 44.328125 
Q 31.78125 46.921875 26.65625 46.921875 
Q 19.671875 46.921875 16.546875 42.28125 
Q 13.421875 37.640625 13.421875 26.65625 
z
" id="LiberationSans-63"/>
      <path d="M 39.84375 0 
L 21.96875 24.125 
L 15.53125 18.796875 
L 15.53125 0 
L 6.734375 0 
L 6.734375 72.46875 
L 15.53125 72.46875 
L 15.53125 27.203125 
L 38.71875 52.828125 
L 49.03125 52.828125 
L 27.59375 30.125 
L 50.140625 0 
z
" id="LiberationSans-6b"/>
      <path d="M 29.9375 0 
L 19.53125 0 
L 0.34375 52.828125 
L 9.71875 52.828125 
L 21.34375 18.453125 
Q 21.96875 16.5 24.703125 6.890625 
L 26.421875 12.59375 
L 28.328125 18.359375 
L 40.328125 52.828125 
L 49.65625 52.828125 
z
" id="LiberationSans-76"/>
     </defs>
     <g style="fill:#262626;" transform="translate(447.690625 92.410625)scale(0.1 -0.1)">
      <use xlink:href="#LiberationSans-65"/>
      <use x="55.615234" xlink:href="#LiberationSans-70"/>
      <use x="111.230469" xlink:href="#LiberationSans-61"/>
      <use x="166.845703" xlink:href="#LiberationSans-6e"/>
      <use x="222.460938" xlink:href="#LiberationSans-65"/>
      <use x="278.076172" xlink:href="#LiberationSans-63"/>
      <use x="328.076172" xlink:href="#LiberationSans-68"/>
      <use x="383.691406" xlink:href="#LiberationSans-6e"/>
      <use x="439.306641" xlink:href="#LiberationSans-69"/>
      <use x="461.523438" xlink:href="#LiberationSans-6b"/>
      <use x="511.523438" xlink:href="#LiberationSans-6f"/>
      <use x="567.138672" xlink:href="#LiberationSans-76"/>
     </g>
    </g>
    <g id="line2d_35">
     <path d="M 419.690625 103.2325 
L 439.690625 103.2325 
" style="fill:none;stroke:#8172b2;stroke-linecap:round;stroke-width:3;"/>
    </g>
    <g id="line2d_36"/>
    <g id="text_15">
     <!-- exponential -->
     <defs>
      <path d="M 39.109375 0 
L 24.90625 21.6875 
L 10.59375 0 
L 1.125 0 
L 19.921875 27.15625 
L 2 52.828125 
L 11.71875 52.828125 
L 24.90625 32.28125 
L 37.984375 52.828125 
L 47.796875 52.828125 
L 29.890625 27.25 
L 48.921875 0 
z
" id="LiberationSans-78"/>
      <path d="M 6.734375 0 
L 6.734375 72.46875 
L 15.53125 72.46875 
L 15.53125 0 
z
" id="LiberationSans-6c"/>
     </defs>
     <g style="fill:#262626;" transform="translate(447.690625 106.7325)scale(0.1 -0.1)">
      <use xlink:href="#LiberationSans-65"/>
      <use x="55.615234" xlink:href="#LiberationSans-78"/>
      <use x="105.615234" xlink:href="#LiberationSans-70"/>
      <use x="161.230469" xlink:href="#LiberationSans-6f"/>
      <use x="216.845703" xlink:href="#LiberationSans-6e"/>
      <use x="272.460938" xlink:href="#LiberationSans-65"/>
      <use x="328.076172" xlink:href="#LiberationSans-6e"/>
      <use x="383.691406" xlink:href="#LiberationSans-74"/>
      <use x="411.474609" xlink:href="#LiberationSans-69"/>
      <use x="433.691406" xlink:href="#LiberationSans-61"/>
      <use x="489.306641" xlink:href="#LiberationSans-6c"/>
     </g>
    </g>
    <g id="line2d_37">
     <path d="M 419.690625 117.554375 
L 439.690625 117.554375 
" style="fill:none;stroke:#ccb974;stroke-linecap:round;stroke-width:3;"/>
    </g>
    <g id="line2d_38"/>
    <g id="text_16">
     <!-- linear -->
     <defs>
      <path d="M 6.9375 0 
L 6.9375 40.53125 
Q 6.9375 46.09375 6.640625 52.828125 
L 14.9375 52.828125 
Q 15.328125 43.84375 15.328125 42.046875 
L 15.53125 42.046875 
Q 17.625 48.828125 20.359375 51.3125 
Q 23.09375 53.8125 28.078125 53.8125 
Q 29.828125 53.8125 31.640625 53.328125 
L 31.640625 45.265625 
Q 29.890625 45.75 26.953125 45.75 
Q 21.484375 45.75 18.59375 41.03125 
Q 15.71875 36.328125 15.71875 27.546875 
L 15.71875 0 
z
" id="LiberationSans-72"/>
     </defs>
     <g style="fill:#262626;" transform="translate(447.690625 121.054375)scale(0.1 -0.1)">
      <use xlink:href="#LiberationSans-6c"/>
      <use x="22.216797" xlink:href="#LiberationSans-69"/>
      <use x="44.433594" xlink:href="#LiberationSans-6e"/>
      <use x="100.048828" xlink:href="#LiberationSans-65"/>
      <use x="155.664062" xlink:href="#LiberationSans-61"/>
      <use x="211.279297" xlink:href="#LiberationSans-72"/>
     </g>
    </g>
    <g id="line2d_39">
     <path d="M 419.690625 131.87625 
L 439.690625 131.87625 
" style="fill:none;stroke:#64b5cd;stroke-linecap:round;stroke-width:3;"/>
    </g>
    <g id="line2d_40"/>
    <g id="text_17">
     <!-- cosine -->
     <g style="fill:#262626;" transform="translate(447.690625 135.37625)scale(0.1 -0.1)">
      <use xlink:href="#LiberationSans-63"/>
      <use x="50" xlink:href="#LiberationSans-6f"/>
      <use x="105.615234" xlink:href="#LiberationSans-73"/>
      <use x="155.615234" xlink:href="#LiberationSans-69"/>
      <use x="177.832031" xlink:href="#LiberationSans-6e"/>
      <use x="233.447266" xlink:href="#LiberationSans-65"/>
     </g>
    </g>
   </g>
  </g>
 </g>
 <defs>
  <clipPath id="p791f847c08">
   <rect height="298.98" width="446.4" x="72" y="47.52"/>
  </clipPath>
 </defs>
</svg>
